{
	"patcher" : 	{
		"fileversion" : 1,
		"appversion" : 		{
			"major" : 8,
			"minor" : 5,
			"revision" : 3,
			"architecture" : "x64",
			"modernui" : 1
		}
,
		"classnamespace" : "box",
		"rect" : [ 1067.0, 323.0, 160.0, 174.0 ],
		"bglocked" : 0,
		"openinpresentation" : 0,
		"default_fontsize" : 12.0,
		"default_fontface" : 0,
		"default_fontname" : "Arial",
		"gridonopen" : 1,
		"gridsize" : [ 15.0, 15.0 ],
		"gridsnaponopen" : 1,
		"objectsnaponopen" : 1,
		"statusbarvisible" : 2,
		"toolbarvisible" : 0,
		"lefttoolbarpinned" : 0,
		"toptoolbarpinned" : 0,
		"righttoolbarpinned" : 0,
		"bottomtoolbarpinned" : 0,
		"toolbars_unpinned_last_save" : 0,
		"tallnewobj" : 0,
		"boxanimatetime" : 200,
		"enablehscroll" : 0,
		"enablevscroll" : 0,
		"devicewidth" : 0.0,
		"description" : "",
		"digest" : "",
		"tags" : "",
		"style" : "",
		"subpatcher_template" : "",
		"assistshowspatchername" : 0,
		"globalpatchername" : "chorus@1",
		"boxes" : [ 			{
				"box" : 				{
					"annotation" : "presets grid. click on ppooll in the ho_st to find info about it",
					"filename" : "ll.pattr_ui.js",
					"id" : "obj-23",
					"jsarguments" : [ 13, "255 255 255", "50 50 50", "255 0 0", "0 255 0", "delayloops1" ],
					"maxclass" : "jsui",
					"numinlets" : 1,
					"numoutlets" : 1,
					"outlettype" : [ "" ],
					"parameter_enable" : 0,
					"patching_rect" : [ 3.25, 18.0, 153.5, 15.0 ],
					"varname" : "presets"
				}

			}
, 			{
				"box" : 				{
					"annotation" : "ramp time between presets. click on ppooll in the ho_st to find info about it",
					"fontface" : 0,
					"fontsize" : 14.0,
					"format" : [ 10000, 1000, ":", 100, 10, 1 ],
					"id" : "obj-25",
					"maxclass" : "ll_number",
					"mousefocus" : 1,
					"numinlets" : 1,
					"numoutlets" : 1,
					"outlettype" : [ "" ],
					"parameter_enable" : 0,
					"patching_rect" : [ 85.0, 0.0, 75.0, 16.0 ],
					"varname" : "preset-ramp"
				}

			}
, 			{
				"box" : 				{
					"hidden" : 1,
					"id" : "obj-47",
					"maxclass" : "comment",
					"numinlets" : 1,
					"numoutlets" : 0,
					"patching_rect" : [ 492.0, 247.0, 206.0, 20.0 ],
					"text" : "Patched by Lewis Kennedy  2022"
				}

			}
, 			{
				"box" : 				{
					"bgcolor" : [ 0.847058823529412, 0.847058823529412, 0.847058823529412, 1.0 ],
					"fontface" : 0,
					"format" : [ 1.2 ],
					"id" : "obj-40",
					"label" : [ "feedbk" ],
					"max" : 1.0,
					"maxclass" : "ll_number",
					"min" : 0.0,
					"mousefocus" : 1,
					"numinlets" : 1,
					"numoutlets" : 1,
					"outlettype" : [ "" ],
					"parameter_enable" : 0,
					"patching_rect" : [ 0.0, 90.0, 160.0, 19.0 ],
					"slidermax" : 1.0,
					"varname" : "feedback"
				}

			}
, 			{
				"box" : 				{
					"bgcolor" : [ 0.847058823529412, 0.847058823529412, 0.847058823529412, 1.0 ],
					"fontface" : 0,
					"format" : [ 2.2 ],
					"id" : "obj-39",
					"label" : [ "time" ],
					"max" : 20.0,
					"maxclass" : "ll_number",
					"min" : 0.0,
					"mousefocus" : 1,
					"numinlets" : 1,
					"numoutlets" : 1,
					"outlettype" : [ "" ],
					"parameter_enable" : 0,
					"patching_rect" : [ 0.0, 72.0, 160.0, 19.0 ],
					"slidermax" : 20.0,
					"varname" : "time"
				}

			}
, 			{
				"box" : 				{
					"bgcolor" : [ 0.847058823529412, 0.847058823529412, 0.847058823529412, 1.0 ],
					"fontface" : 0,
					"format" : [ 1.2 ],
					"id" : "obj-38",
					"label" : [ "depth" ],
					"max" : 1.0,
					"maxclass" : "ll_number",
					"min" : 0.0,
					"mousefocus" : 1,
					"numinlets" : 1,
					"numoutlets" : 1,
					"outlettype" : [ "" ],
					"parameter_enable" : 0,
					"patching_rect" : [ 0.0, 54.0, 160.0, 19.0 ],
					"slidermax" : 1.0,
					"varname" : "depth"
				}

			}
, 			{
				"box" : 				{
					"bgcolor" : [ 0.847058823529412, 0.847058823529412, 0.847058823529412, 1.0 ],
					"fontface" : 0,
					"format" : [ 1.2 ],
					"id" : "obj-37",
					"label" : [ "rate" ],
					"max" : 8.0,
					"maxclass" : "ll_number",
					"min" : 0.0,
					"mousefocus" : 1,
					"numinlets" : 1,
					"numoutlets" : 1,
					"outlettype" : [ "" ],
					"parameter_enable" : 0,
					"patching_rect" : [ 0.0, 36.0, 160.0, 19.0 ],
					"slidermax" : 8.0,
					"varname" : "rate"
				}

			}
, 			{
				"box" : 				{
					"hidden" : 1,
					"id" : "obj-36",
					"maxclass" : "newobj",
					"numinlets" : 0,
					"numoutlets" : 0,
					"patcher" : 					{
						"fileversion" : 1,
						"appversion" : 						{
							"major" : 8,
							"minor" : 5,
							"revision" : 3,
							"architecture" : "x64",
							"modernui" : 1
						}
,
						"classnamespace" : "box",
						"rect" : [ 734.0, 307.0, 631.0, 478.0 ],
						"bglocked" : 0,
						"openinpresentation" : 0,
						"default_fontsize" : 12.0,
						"default_fontface" : 0,
						"default_fontname" : "Arial",
						"gridonopen" : 1,
						"gridsize" : [ 15.0, 15.0 ],
						"gridsnaponopen" : 1,
						"objectsnaponopen" : 1,
						"statusbarvisible" : 2,
						"toolbarvisible" : 1,
						"lefttoolbarpinned" : 0,
						"toptoolbarpinned" : 0,
						"righttoolbarpinned" : 0,
						"bottomtoolbarpinned" : 0,
						"toolbars_unpinned_last_save" : 0,
						"tallnewobj" : 0,
						"boxanimatetime" : 200,
						"enablehscroll" : 1,
						"enablevscroll" : 1,
						"devicewidth" : 0.0,
						"description" : "",
						"digest" : "",
						"tags" : "",
						"style" : "",
						"subpatcher_template" : "",
						"assistshowspatchername" : 0,
						"boxes" : [ 							{
								"box" : 								{
									"id" : "obj-20",
									"maxclass" : "newobj",
									"numinlets" : 1,
									"numoutlets" : 2,
									"outlettype" : [ "", "" ],
									"patching_rect" : [ 11.0, 7.0, 67.0, 22.0 ],
									"save" : [ "#N", "thispatcher", ";", "#Q", "end", ";" ],
									"text" : "thispatcher"
								}

							}
, 							{
								"box" : 								{
									"id" : "obj-5",
									"maxclass" : "newobj",
									"numinlets" : 2,
									"numoutlets" : 1,
									"outlettype" : [ "signal" ],
									"patching_rect" : [ 263.0, 351.0, 33.0, 22.0 ],
									"text" : "+~ 0"
								}

							}
, 							{
								"box" : 								{
									"id" : "obj-8",
									"maxclass" : "newobj",
									"numinlets" : 2,
									"numoutlets" : 1,
									"outlettype" : [ "signal" ],
									"patching_rect" : [ 263.0, 314.0, 34.0, 22.0 ],
									"text" : "*~ 0."
								}

							}
, 							{
								"box" : 								{
									"id" : "obj-11",
									"maxclass" : "newobj",
									"numinlets" : 2,
									"numoutlets" : 1,
									"outlettype" : [ "signal" ],
									"patching_rect" : [ 263.0, 277.0, 34.0, 22.0 ],
									"text" : "*~ 0."
								}

							}
, 							{
								"box" : 								{
									"id" : "obj-13",
									"maxclass" : "newobj",
									"numinlets" : 1,
									"numoutlets" : 1,
									"outlettype" : [ "signal" ],
									"patching_rect" : [ 263.0, 219.0, 40.0, 22.0 ],
									"text" : "rand~"
								}

							}
, 							{
								"box" : 								{
									"id" : "obj-14",
									"maxclass" : "newobj",
									"numinlets" : 2,
									"numoutlets" : 1,
									"outlettype" : [ "signal" ],
									"patching_rect" : [ 182.0, 264.0, 34.0, 22.0 ],
									"text" : "*~ 0."
								}

							}
, 							{
								"box" : 								{
									"id" : "obj-16",
									"maxclass" : "newobj",
									"numinlets" : 1,
									"numoutlets" : 1,
									"outlettype" : [ "signal" ],
									"patching_rect" : [ 108.0, 307.0, 62.0, 22.0 ],
									"text" : "tapout~ 0."
								}

							}
, 							{
								"box" : 								{
									"id" : "obj-18",
									"maxclass" : "newobj",
									"numinlets" : 1,
									"numoutlets" : 1,
									"outlettype" : [ "tapconnect" ],
									"patching_rect" : [ 108.0, 201.0, 65.0, 22.0 ],
									"text" : "tapin~ 100"
								}

							}
, 							{
								"box" : 								{
									"id" : "obj-7",
									"maxclass" : "newobj",
									"numinlets" : 1,
									"numoutlets" : 1,
									"outlettype" : [ "multichannelsignal" ],
									"patching_rect" : [ 108.0, 83.0, 51.0, 22.0 ],
									"text" : "ll.r~ in 2"
								}

							}
, 							{
								"box" : 								{
									"id" : "obj-6",
									"maxclass" : "newobj",
									"numinlets" : 2,
									"numoutlets" : 2,
									"outlettype" : [ "", "bang" ],
									"patching_rect" : [ 108.0, 440.0, 70.0, 22.0 ],
									"text" : "ll.pf ll.blues"
								}

							}
, 							{
								"box" : 								{
									"id" : "obj-4",
									"maxclass" : "newobj",
									"numinlets" : 1,
									"numoutlets" : 1,
									"outlettype" : [ "" ],
									"patching_rect" : [ 548.5, 7.0, 73.0, 22.0 ],
									"text" : "ll.r feedback"
								}

							}
, 							{
								"box" : 								{
									"id" : "obj-3",
									"maxclass" : "newobj",
									"numinlets" : 1,
									"numoutlets" : 1,
									"outlettype" : [ "" ],
									"patching_rect" : [ 507.5, 43.0, 47.0, 22.0 ],
									"text" : "ll.r time"
								}

							}
, 							{
								"box" : 								{
									"id" : "obj-2",
									"maxclass" : "newobj",
									"numinlets" : 1,
									"numoutlets" : 1,
									"outlettype" : [ "" ],
									"patching_rect" : [ 466.5, 7.0, 55.0, 22.0 ],
									"text" : "ll.r depth"
								}

							}
, 							{
								"box" : 								{
									"id" : "obj-1",
									"maxclass" : "newobj",
									"numinlets" : 1,
									"numoutlets" : 1,
									"outlettype" : [ "" ],
									"patching_rect" : [ 425.5, 43.0, 45.0, 22.0 ],
									"text" : "ll.r rate"
								}

							}
, 							{
								"box" : 								{
									"id" : "obj-31",
									"maxclass" : "newobj",
									"numinlets" : 1,
									"numoutlets" : 2,
									"outlettype" : [ "signal", "signal" ],
									"patching_rect" : [ 108.0, 123.0, 74.0, 22.0 ],
									"text" : "mc.unpack~"
								}

							}
, 							{
								"box" : 								{
									"id" : "obj-30",
									"maxclass" : "newobj",
									"numinlets" : 2,
									"numoutlets" : 1,
									"outlettype" : [ "multichannelsignal" ],
									"patching_rect" : [ 108.0, 407.0, 225.0, 22.0 ],
									"text" : "mc.pack~"
								}

							}
, 							{
								"box" : 								{
									"id" : "obj-26",
									"maxclass" : "live.slider",
									"numinlets" : 1,
									"numoutlets" : 2,
									"outlettype" : [ "", "float" ],
									"parameter_enable" : 1,
									"patching_rect" : [ 548.5, 83.0, 39.0, 95.0 ],
									"saved_attribute_attributes" : 									{
										"valueof" : 										{
											"parameter_longname" : "live.slider[3]",
											"parameter_mmax" : 1.0,
											"parameter_shortname" : "FB",
											"parameter_type" : 0,
											"parameter_unitstyle" : 1
										}

									}
,
									"varname" : "live.slider[3]"
								}

							}
, 							{
								"box" : 								{
									"id" : "obj-25",
									"maxclass" : "live.slider",
									"numinlets" : 1,
									"numoutlets" : 2,
									"outlettype" : [ "", "float" ],
									"parameter_enable" : 1,
									"patching_rect" : [ 507.5, 83.0, 39.0, 95.0 ],
									"saved_attribute_attributes" : 									{
										"valueof" : 										{
											"parameter_longname" : "live.slider[2]",
											"parameter_mmax" : 20.0,
											"parameter_shortname" : "Time",
											"parameter_type" : 0,
											"parameter_unitstyle" : 2
										}

									}
,
									"varname" : "live.slider[2]"
								}

							}
, 							{
								"box" : 								{
									"id" : "obj-24",
									"maxclass" : "live.slider",
									"numinlets" : 1,
									"numoutlets" : 2,
									"outlettype" : [ "", "float" ],
									"parameter_enable" : 1,
									"patching_rect" : [ 466.5, 83.0, 39.0, 95.0 ],
									"saved_attribute_attributes" : 									{
										"valueof" : 										{
											"parameter_longname" : "live.slider[1]",
											"parameter_mmax" : 1.0,
											"parameter_shortname" : "Depth",
											"parameter_type" : 0,
											"parameter_unitstyle" : 1
										}

									}
,
									"varname" : "live.slider[1]"
								}

							}
, 							{
								"box" : 								{
									"id" : "obj-22",
									"maxclass" : "live.slider",
									"numinlets" : 1,
									"numoutlets" : 2,
									"outlettype" : [ "", "float" ],
									"parameter_enable" : 1,
									"patching_rect" : [ 425.5, 83.0, 39.0, 95.0 ],
									"saved_attribute_attributes" : 									{
										"valueof" : 										{
											"parameter_longname" : "live.slider",
											"parameter_mmax" : 8.0,
											"parameter_shortname" : "Rate",
											"parameter_type" : 0,
											"parameter_unitstyle" : 1
										}

									}
,
									"varname" : "live.slider"
								}

							}
, 							{
								"box" : 								{
									"id" : "obj-9",
									"maxclass" : "newobj",
									"numinlets" : 2,
									"numoutlets" : 1,
									"outlettype" : [ "signal" ],
									"patching_rect" : [ 469.0, 351.0, 33.0, 22.0 ],
									"text" : "+~ 0"
								}

							}
, 							{
								"box" : 								{
									"id" : "obj-12",
									"maxclass" : "newobj",
									"numinlets" : 2,
									"numoutlets" : 1,
									"outlettype" : [ "signal" ],
									"patching_rect" : [ 469.0, 314.0, 34.0, 22.0 ],
									"text" : "*~ 0."
								}

							}
, 							{
								"box" : 								{
									"id" : "obj-10",
									"maxclass" : "newobj",
									"numinlets" : 2,
									"numoutlets" : 1,
									"outlettype" : [ "signal" ],
									"patching_rect" : [ 469.0, 277.0, 34.0, 22.0 ],
									"text" : "*~ 0."
								}

							}
, 							{
								"box" : 								{
									"id" : "obj-17",
									"maxclass" : "newobj",
									"numinlets" : 1,
									"numoutlets" : 1,
									"outlettype" : [ "signal" ],
									"patching_rect" : [ 469.0, 219.0, 40.0, 22.0 ],
									"text" : "rand~"
								}

							}
, 							{
								"box" : 								{
									"id" : "obj-19",
									"maxclass" : "newobj",
									"numinlets" : 2,
									"numoutlets" : 1,
									"outlettype" : [ "signal" ],
									"patching_rect" : [ 388.0, 264.0, 34.0, 22.0 ],
									"text" : "*~ 0."
								}

							}
, 							{
								"box" : 								{
									"id" : "obj-23",
									"maxclass" : "newobj",
									"numinlets" : 1,
									"numoutlets" : 1,
									"outlettype" : [ "signal" ],
									"patching_rect" : [ 314.0, 307.0, 62.0, 22.0 ],
									"text" : "tapout~ 0."
								}

							}
, 							{
								"box" : 								{
									"id" : "obj-28",
									"maxclass" : "newobj",
									"numinlets" : 1,
									"numoutlets" : 1,
									"outlettype" : [ "tapconnect" ],
									"patching_rect" : [ 314.0, 201.0, 65.0, 22.0 ],
									"text" : "tapin~ 100"
								}

							}
 ],
						"lines" : [ 							{
								"patchline" : 								{
									"destination" : [ "obj-22", 0 ],
									"source" : [ "obj-1", 0 ]
								}

							}
, 							{
								"patchline" : 								{
									"destination" : [ "obj-12", 0 ],
									"source" : [ "obj-10", 0 ]
								}

							}
, 							{
								"patchline" : 								{
									"destination" : [ "obj-8", 0 ],
									"source" : [ "obj-11", 0 ]
								}

							}
, 							{
								"patchline" : 								{
									"destination" : [ "obj-9", 0 ],
									"source" : [ "obj-12", 0 ]
								}

							}
, 							{
								"patchline" : 								{
									"destination" : [ "obj-11", 0 ],
									"source" : [ "obj-13", 0 ]
								}

							}
, 							{
								"patchline" : 								{
									"destination" : [ "obj-18", 0 ],
									"midpoints" : [ 191.5, 297.0, 154.5, 297.0, 154.5, 190.0, 117.5, 190.0 ],
									"source" : [ "obj-14", 0 ]
								}

							}
, 							{
								"patchline" : 								{
									"destination" : [ "obj-14", 0 ],
									"midpoints" : [ 117.5, 339.0, 168.5, 339.0, 168.5, 253.0, 191.5, 253.0 ],
									"order" : 0,
									"source" : [ "obj-16", 0 ]
								}

							}
, 							{
								"patchline" : 								{
									"destination" : [ "obj-30", 0 ],
									"order" : 1,
									"source" : [ "obj-16", 0 ]
								}

							}
, 							{
								"patchline" : 								{
									"destination" : [ "obj-10", 0 ],
									"source" : [ "obj-17", 0 ]
								}

							}
, 							{
								"patchline" : 								{
									"destination" : [ "obj-16", 0 ],
									"source" : [ "obj-18", 0 ]
								}

							}
, 							{
								"patchline" : 								{
									"destination" : [ "obj-28", 0 ],
									"midpoints" : [ 397.5, 297.0, 360.5, 297.0, 360.5, 190.0, 323.5, 190.0 ],
									"source" : [ "obj-19", 0 ]
								}

							}
, 							{
								"patchline" : 								{
									"destination" : [ "obj-24", 0 ],
									"source" : [ "obj-2", 0 ]
								}

							}
, 							{
								"patchline" : 								{
									"destination" : [ "obj-13", 0 ],
									"midpoints" : [ 435.0, 191.5, 272.5, 191.5 ],
									"order" : 1,
									"source" : [ "obj-22", 0 ]
								}

							}
, 							{
								"patchline" : 								{
									"destination" : [ "obj-17", 0 ],
									"midpoints" : [ 435.0, 190.5, 478.5, 190.5 ],
									"order" : 0,
									"source" : [ "obj-22", 0 ]
								}

							}
, 							{
								"patchline" : 								{
									"destination" : [ "obj-19", 0 ],
									"midpoints" : [ 323.5, 339.0, 374.5, 339.0, 374.5, 253.0, 397.5, 253.0 ],
									"order" : 0,
									"source" : [ "obj-23", 0 ]
								}

							}
, 							{
								"patchline" : 								{
									"destination" : [ "obj-30", 1 ],
									"order" : 1,
									"source" : [ "obj-23", 0 ]
								}

							}
, 							{
								"patchline" : 								{
									"destination" : [ "obj-10", 1 ],
									"midpoints" : [ 476.0, 190.5, 493.5, 190.5 ],
									"order" : 0,
									"source" : [ "obj-24", 0 ]
								}

							}
, 							{
								"patchline" : 								{
									"destination" : [ "obj-11", 1 ],
									"midpoints" : [ 476.0, 189.5, 287.5, 189.5 ],
									"order" : 1,
									"source" : [ "obj-24", 0 ]
								}

							}
, 							{
								"patchline" : 								{
									"destination" : [ "obj-12", 1 ],
									"midpoints" : [ 517.0, 191.0, 493.5, 191.0 ],
									"order" : 0,
									"source" : [ "obj-25", 0 ]
								}

							}
, 							{
								"patchline" : 								{
									"destination" : [ "obj-5", 1 ],
									"midpoints" : [ 517.0, 260.5, 286.5, 260.5 ],
									"order" : 3,
									"source" : [ "obj-25", 0 ]
								}

							}
, 							{
								"patchline" : 								{
									"destination" : [ "obj-8", 1 ],
									"midpoints" : [ 517.0, 262.0, 287.5, 262.0 ],
									"order" : 2,
									"source" : [ "obj-25", 0 ]
								}

							}
, 							{
								"patchline" : 								{
									"destination" : [ "obj-9", 1 ],
									"midpoints" : [ 517.0, 233.5, 492.5, 233.5 ],
									"order" : 1,
									"source" : [ "obj-25", 0 ]
								}

							}
, 							{
								"patchline" : 								{
									"destination" : [ "obj-14", 1 ],
									"midpoints" : [ 558.0, 190.0, 206.5, 190.0 ],
									"order" : 1,
									"source" : [ "obj-26", 0 ]
								}

							}
, 							{
								"patchline" : 								{
									"destination" : [ "obj-19", 1 ],
									"midpoints" : [ 558.0, 190.0, 412.5, 190.0 ],
									"order" : 0,
									"source" : [ "obj-26", 0 ]
								}

							}
, 							{
								"patchline" : 								{
									"destination" : [ "obj-23", 0 ],
									"source" : [ "obj-28", 0 ]
								}

							}
, 							{
								"patchline" : 								{
									"destination" : [ "obj-25", 0 ],
									"source" : [ "obj-3", 0 ]
								}

							}
, 							{
								"patchline" : 								{
									"destination" : [ "obj-6", 0 ],
									"source" : [ "obj-30", 0 ]
								}

							}
, 							{
								"patchline" : 								{
									"destination" : [ "obj-18", 0 ],
									"source" : [ "obj-31", 0 ]
								}

							}
, 							{
								"patchline" : 								{
									"destination" : [ "obj-28", 0 ],
									"midpoints" : [ 172.5, 172.5, 323.5, 172.5 ],
									"source" : [ "obj-31", 1 ]
								}

							}
, 							{
								"patchline" : 								{
									"destination" : [ "obj-26", 0 ],
									"source" : [ "obj-4", 0 ]
								}

							}
, 							{
								"patchline" : 								{
									"destination" : [ "obj-16", 0 ],
									"midpoints" : [ 272.5, 383.0, 195.0, 383.0, 195.0, 296.0, 117.5, 296.0 ],
									"source" : [ "obj-5", 0 ]
								}

							}
, 							{
								"patchline" : 								{
									"destination" : [ "obj-31", 0 ],
									"source" : [ "obj-7", 0 ]
								}

							}
, 							{
								"patchline" : 								{
									"destination" : [ "obj-5", 0 ],
									"source" : [ "obj-8", 0 ]
								}

							}
, 							{
								"patchline" : 								{
									"destination" : [ "obj-23", 0 ],
									"midpoints" : [ 478.5, 383.0, 401.0, 383.0, 401.0, 296.0, 323.5, 296.0 ],
									"source" : [ "obj-9", 0 ]
								}

							}
 ]
					}
,
					"patching_rect" : [ 492.0, 221.0, 55.0, 22.0 ],
					"saved_object_attributes" : 					{
						"description" : "",
						"digest" : "",
						"globalpatchername" : "",
						"tags" : ""
					}
,
					"text" : "p chorus",
					"varname" : "subTP"
				}

			}
, 			{
				"box" : 				{
					"hidden" : 1,
					"id" : "obj-7",
					"linecount" : 2,
					"maxclass" : "newobj",
					"numinlets" : 1,
					"numoutlets" : 3,
					"outlettype" : [ "", "", "" ],
					"patching_rect" : [ 477.0, 25.0, 48.0, 36.0 ],
					"restore" : [ "in(2)" ],
					"saved_object_attributes" : 					{
						"parameter_enable" : 0,
						"parameter_mappable" : 0
					}
,
					"text" : "pattr inputs~",
					"varname" : "inputs~"
				}

			}
, 			{
				"box" : 				{
					"bgmode" : 0,
					"border" : 1,
					"clickthrough" : 0,
					"enablehscroll" : 0,
					"enablevscroll" : 0,
					"id" : "obj-43",
					"lockeddragscroll" : 0,
					"lockedsize" : 0,
					"maxclass" : "bpatcher",
					"name" : "ll.blues.maxpat",
					"numinlets" : 1,
					"numoutlets" : 0,
					"offset" : [ 0.0, 0.0 ],
					"patching_rect" : [ 0.0, 121.0, 160.0, 53.0 ],
					"varname" : "ll.blues",
					"viewvisibility" : 1
				}

			}
, 			{
				"box" : 				{
					"bgmode" : 0,
					"border" : 0,
					"clickthrough" : 0,
					"enablehscroll" : 0,
					"enablevscroll" : 0,
					"id" : "obj-16",
					"lockeddragscroll" : 0,
					"lockedsize" : 0,
					"maxclass" : "bpatcher",
					"name" : "ll.inputmix.maxpat",
					"numinlets" : 0,
					"numoutlets" : 2,
					"offset" : [ 0.0, 0.0 ],
					"outlettype" : [ "multichannelsignal", "multichannelsignal" ],
					"patching_rect" : [ 0.0, 109.0, 160.0, 12.0 ],
					"varname" : "ll.inputmix",
					"viewvisibility" : 1
				}

			}
, 			{
				"box" : 				{
					"id" : "obj-18",
					"ignoreclick" : 1,
					"maxclass" : "lcd",
					"numinlets" : 1,
					"numoutlets" : 4,
					"outlettype" : [ "list", "list", "int", "" ],
					"patching_rect" : [ 0.0, 0.0, 72.0, 16.0 ],
					"varname" : "title_LCD"
				}

			}
, 			{
				"box" : 				{
					"color" : [ 0.0, 0.0, 0.0, 1.0 ],
					"fontname" : "Arial",
					"fontsize" : 12.0,
					"hidden" : 1,
					"id" : "obj-1",
					"maxclass" : "newobj",
					"numinlets" : 2,
					"numoutlets" : 0,
					"patching_rect" : [ 492.0, 134.0, 181.0, 22.0 ],
					"text" : "actmaker chorus@ \"100 50 100\"",
					"varname" : "act"
				}

			}
, 			{
				"box" : 				{
					"color" : [ 0.0, 0.0, 0.0, 1.0 ],
					"fontname" : "Arial",
					"fontsize" : 12.0,
					"hidden" : 1,
					"id" : "obj-2",
					"maxclass" : "newobj",
					"numinlets" : 1,
					"numoutlets" : 1,
					"outlettype" : [ "" ],
					"patching_rect" : [ 492.0, 92.0, 113.0, 22.0 ],
					"text" : "loadmess loadbang",
					"varname" : "loadmess"
				}

			}
, 			{
				"box" : 				{
					"active" : 					{
						"preset-ramp" : 0,
						"presets" : 0,
						"title_menu" : 0,
						"pres_menu" : 0,
						"tetris_menu" : 0,
						"master" : 0,
						"ll.blues" : 0,
						"ll.blues::levels" : 0,
						"ll.blues::outputs" : 0,
						"ll.blues::state" : 0
					}
,
					"color" : [ 0.0, 0.0, 0.0, 1.0 ],
					"fontname" : "Arial",
					"fontsize" : 12.0,
					"hidden" : 1,
					"id" : "obj-3",
					"maxclass" : "newobj",
					"numinlets" : 1,
					"numoutlets" : 1,
					"outlettype" : [ "" ],
					"patching_rect" : [ 505.0, 113.0, 100.0, 22.0 ],
					"priority" : 					{
						"title_menu" : 2010,
						"pres_menu" : 2011,
						"tetris_menu" : 2012,
						"master" : 2013
					}
,
					"saved_object_attributes" : 					{
						"client_rect" : [ 704, 127, 1104, 627 ],
						"parameter_enable" : 0,
						"parameter_mappable" : 0,
						"storage_rect" : [ 200, 200, 800, 500 ]
					}
,
					"text" : "pattrstorage pat",
					"varname" : "pat"
				}

			}
, 			{
				"box" : 				{
					"color" : [ 0.0, 0.0, 0.0, 1.0 ],
					"fontname" : "Arial",
					"fontsize" : 12.0,
					"hidden" : 1,
					"id" : "obj-4",
					"maxclass" : "newobj",
					"numinlets" : 1,
					"numoutlets" : 2,
					"outlettype" : [ "", "" ],
					"patching_rect" : [ 492.0, 155.0, 107.0, 22.0 ],
					"save" : [ "#N", "thispatcher", ";", "#Q", "end", ";" ],
					"text" : "thispatcher",
					"varname" : "thispatcher"
				}

			}
, 			{
				"box" : 				{
					"color" : [ 0.0, 0.0, 0.0, 1.0 ],
					"fontname" : "Arial",
					"fontsize" : 12.0,
					"hidden" : 1,
					"id" : "obj-5",
					"maxclass" : "newobj",
					"numinlets" : 1,
					"numoutlets" : 1,
					"outlettype" : [ "" ],
					"patching_rect" : [ 492.0, 176.0, 107.0, 22.0 ],
					"text" : "pattrmarker no",
					"varname" : "pattrmarker"
				}

			}
, 			{
				"box" : 				{
					"color" : [ 0.0, 0.0, 0.0, 1.0 ],
					"fontname" : "Arial",
					"fontsize" : 12.0,
					"hidden" : 1,
					"id" : "obj-6",
					"maxclass" : "newobj",
					"numinlets" : 1,
					"numoutlets" : 4,
					"outlettype" : [ "", "", "", "" ],
					"patching_rect" : [ 492.0, 197.0, 107.0, 22.0 ],
					"restore" : 					{
						"depth" : [ 0.370000004768372 ],
						"feedback" : [ 0.639999985694885 ],
						"master" : [ 0 ],
						"pres_menu" : [ "" ],
						"preset-ramp" : [ 0 ],
						"presets" : [ 0 ],
						"rate" : [ 1.75 ],
						"tetris_menu" : [ "" ],
						"time" : [ 4.630000114440918 ],
						"title_menu" : [ "titlebar" ]
					}
,
					"text" : "autopattr autopattr",
					"varname" : "autopattr"
				}

			}
, 			{
				"box" : 				{
					"allowdrag" : 0,
					"annotation" : "title_menu - click on ppooll in the ho_st to find info about it",
					"bgcolor" : [ 1.0, 1.0, 1.0, 0.0 ],
					"bgfillcolor_color" : [ 1.0, 1.0, 1.0, 0.0 ],
					"bgfillcolor_color1" : [ 0.301961, 0.301961, 0.301961, 1 ],
					"bgfillcolor_color2" : [ 0.2, 0.2, 0.2, 1 ],
					"bgfillcolor_type" : "color",
					"fontname" : "Arial",
					"fontsize" : 12.0,
					"id" : "obj-8",
					"items" : [ "info", ",", "clientwindow", ",", "storagewindow", ",", "-", ",", "titlebar", ",", "close", ",", "back", ",", "grow", ",", "master", ",", "active_store", ",", "-", ",", "subpatch", ",", "actmaker" ],
					"maxclass" : "umenu",
					"numinlets" : 1,
					"numoutlets" : 3,
					"outlettype" : [ "int", "", "" ],
					"parameter_enable" : 0,
					"patching_rect" : [ 36.0, 0.0, 36.0, 22.0 ],
					"pattrmode" : 1,
					"textcolor" : [ 0.149, 0.149, 0.149, 1.0 ],
					"varname" : "title_menu"
				}

			}
, 			{
				"box" : 				{
					"allowdrag" : 0,
					"bgcolor" : [ 1.0, 1.0, 1.0, 0.0 ],
					"bgfillcolor_color" : [ 1.0, 1.0, 1.0, 0.0 ],
					"bgfillcolor_color1" : [ 0.301961, 0.301961, 0.301961, 1 ],
					"bgfillcolor_color2" : [ 0.2, 0.2, 0.2, 1 ],
					"bgfillcolor_type" : "color",
					"fontname" : "Arial",
					"fontsize" : 12.0,
					"id" : "obj-11",
					"ignoreclick" : 1,
					"items" : [ "-", ",", "write", ",", "clear!", ",", "TEXT" ],
					"maxclass" : "umenu",
					"numinlets" : 1,
					"numoutlets" : 3,
					"outlettype" : [ "int", "", "" ],
					"parameter_enable" : 0,
					"patching_rect" : [ 36.0, 0.0, 36.0, 22.0 ],
					"pattrmode" : 1,
					"textcolor" : [ 0.149, 0.149, 0.149, 1.0 ],
					"varname" : "pres_menu"
				}

			}
, 			{
				"box" : 				{
					"allowdrag" : 0,
					"bgcolor" : [ 1.0, 1.0, 1.0, 0.0 ],
					"bgfillcolor_color" : [ 1.0, 1.0, 1.0, 0.0 ],
					"bgfillcolor_color1" : [ 0.301961, 0.301961, 0.301961, 1 ],
					"bgfillcolor_color2" : [ 0.2, 0.2, 0.2, 1 ],
					"bgfillcolor_type" : "color",
					"fontname" : "Arial",
					"fontsize" : 12.0,
					"id" : "obj-13",
					"ignoreclick" : 1,
					"items" : "-",
					"maxclass" : "umenu",
					"numinlets" : 1,
					"numoutlets" : 3,
					"outlettype" : [ "int", "", "" ],
					"parameter_enable" : 0,
					"patching_rect" : [ 36.0, 0.0, 36.0, 22.0 ],
					"pattrmode" : 1,
					"textcolor" : [ 0.149, 0.149, 0.149, 1.0 ],
					"varname" : "tetris_menu"
				}

			}
, 			{
				"box" : 				{
					"annotation" : "drag here to move the window",
					"filename" : "ll.movewindow.js",
					"id" : "obj-15",
					"maxclass" : "jsui",
					"numinlets" : 1,
					"numoutlets" : 1,
					"outlettype" : [ "" ],
					"parameter_enable" : 0,
					"patching_rect" : [ 0.0, 0.0, 36.0, 14.0 ],
					"varname" : "master"
				}

			}
 ],
		"lines" : [ 			{
				"patchline" : 				{
					"destination" : [ "obj-43", 0 ],
					"hidden" : 1,
					"source" : [ "obj-16", 0 ]
				}

			}
, 			{
				"patchline" : 				{
					"destination" : [ "obj-1", 0 ],
					"hidden" : 1,
					"source" : [ "obj-2", 0 ]
				}

			}
, 			{
				"patchline" : 				{
					"destination" : [ "obj-1", 1 ],
					"hidden" : 1,
					"source" : [ "obj-3", 0 ]
				}

			}
 ],
		"parameters" : 		{
			"obj-36::obj-22" : [ "live.slider", "Rate", 0 ],
			"obj-36::obj-24" : [ "live.slider[1]", "Depth", 0 ],
			"obj-36::obj-25" : [ "live.slider[2]", "Time", 0 ],
			"obj-36::obj-26" : [ "live.slider[3]", "FB", 0 ],
			"parameterbanks" : 			{

			}
,
			"inherited_shortname" : 1
		}
,
		"dependency_cache" : [ 			{
				"name" : "actmaker.maxpat",
				"bootpath" : "~/Documents/Max 8/Packages/ppooll/patchers/abstractions/filip",
				"patcherrelativepath" : "../abstractions/filip",
				"type" : "JSON",
				"implicit" : 1
			}
, 			{
				"name" : "ll.actmenu.maxpat",
				"bootpath" : "~/Documents/Max 8/Packages/ppooll/patchers/abstractions/filip",
				"patcherrelativepath" : "../abstractions/filip",
				"type" : "JSON",
				"implicit" : 1
			}
, 			{
				"name" : "ll.actname.maxpat",
				"bootpath" : "~/Documents/Max 8/Packages/ppooll/patchers/abstractions/filip",
				"patcherrelativepath" : "../abstractions/filip",
				"type" : "JSON",
				"implicit" : 1
			}
, 			{
				"name" : "ll.actnamehelper.maxpat",
				"bootpath" : "~/Documents/Max 8/Packages/ppooll/patchers/abstractions/filip",
				"patcherrelativepath" : "../abstractions/filip",
				"type" : "JSON",
				"implicit" : 1
			}
, 			{
				"name" : "ll.an.js",
				"bootpath" : "~/Documents/Max 8/Packages/ppooll/javascript",
				"patcherrelativepath" : "../../javascript",
				"type" : "TEXT",
				"implicit" : 1
			}
, 			{
				"name" : "ll.blues.maxpat",
				"bootpath" : "~/Documents/Max 8/Packages/ppooll/patchers/abstractions/filip/ll.blues",
				"patcherrelativepath" : "../abstractions/filip/ll.blues",
				"type" : "JSON",
				"implicit" : 1
			}
, 			{
				"name" : "ll.createact8.js",
				"bootpath" : "~/Documents/Max 8/Packages/ppooll/javascript",
				"patcherrelativepath" : "../../javascript",
				"type" : "TEXT",
				"implicit" : 1
			}
, 			{
				"name" : "ll.inputmix.maxpat",
				"bootpath" : "~/Documents/Max 8/Packages/ppooll/patchers/abstractions/filip",
				"patcherrelativepath" : "../abstractions/filip",
				"type" : "JSON",
				"implicit" : 1
			}
, 			{
				"name" : "ll.movewindow.js",
				"bootpath" : "~/Documents/Max 8/Packages/ppooll/javascript",
				"patcherrelativepath" : "../../javascript",
				"type" : "TEXT",
				"implicit" : 1
			}
, 			{
				"name" : "ll.p.maxpat",
				"bootpath" : "~/Documents/Max 8/Packages/ppooll/patchers/abstractions/filip",
				"patcherrelativepath" : "../abstractions/filip",
				"type" : "JSON",
				"implicit" : 1
			}
, 			{
				"name" : "ll.pattr_ui.js",
				"bootpath" : "~/Documents/Max 8/Packages/ppooll/javascript",
				"patcherrelativepath" : "../../javascript",
				"type" : "TEXT",
				"implicit" : 1
			}
, 			{
				"name" : "ll.pf.maxpat",
				"bootpath" : "~/Documents/Max 8/Packages/ppooll/patchers/abstractions/filip",
				"patcherrelativepath" : "../abstractions/filip",
				"type" : "JSON",
				"implicit" : 1
			}
, 			{
				"name" : "ll.psto.maxpat",
				"bootpath" : "~/Documents/Max 8/Packages/ppooll/patchers/abstractions/filip",
				"patcherrelativepath" : "../abstractions/filip",
				"type" : "JSON",
				"implicit" : 1
			}
, 			{
				"name" : "ll.r.maxpat",
				"bootpath" : "~/Documents/Max 8/Packages/ppooll/patchers/abstractions/filip",
				"patcherrelativepath" : "../abstractions/filip",
				"type" : "JSON",
				"implicit" : 1
			}
, 			{
				"name" : "ll.r~.maxpat",
				"bootpath" : "~/Documents/Max 8/Packages/ppooll/patchers/abstractions/filip",
				"patcherrelativepath" : "../abstractions/filip",
				"type" : "JSON",
				"implicit" : 1
			}
, 			{
				"name" : "ll.shut.maxpat",
				"bootpath" : "~/Documents/Max 8/Packages/ppooll/patchers/abstractions/filip",
				"patcherrelativepath" : "../abstractions/filip",
				"type" : "JSON",
				"implicit" : 1
			}
, 			{
				"name" : "ll.strip#.maxpat",
				"bootpath" : "~/Documents/Max 8/Packages/ppooll/patchers/abstractions/filip",
				"patcherrelativepath" : "../abstractions/filip",
				"type" : "JSON",
				"implicit" : 1
			}
, 			{
				"name" : "ll.s~.maxpat",
				"bootpath" : "~/Documents/Max 8/Packages/ppooll/patchers/abstractions/filip",
				"patcherrelativepath" : "../abstractions/filip",
				"type" : "JSON",
				"implicit" : 1
			}
, 			{
				"name" : "ll.textsize.js",
				"bootpath" : "~/Documents/Max 8/Packages/ppooll/javascript",
				"patcherrelativepath" : "../../javascript",
				"type" : "TEXT",
				"implicit" : 1
			}
, 			{
				"name" : "ll.wsendback.js",
				"bootpath" : "~/Documents/Max 8/Packages/ppooll/javascript",
				"patcherrelativepath" : "../../javascript",
				"type" : "TEXT",
				"implicit" : 1
			}
, 			{
				"name" : "ll_fastforward.mxe64",
				"type" : "mx64"
			}
, 			{
				"name" : "ll_number.mxe64",
				"type" : "mx64"
			}
, 			{
				"name" : "n.maxpat",
				"bootpath" : "~/Documents/Max 8/Packages/ppooll/patchers/abstractions/filip",
				"patcherrelativepath" : "../abstractions/filip",
				"type" : "JSON",
				"implicit" : 1
			}
, 			{
				"name" : "nblue.js",
				"bootpath" : "~/Documents/Max 8/Packages/ppooll/javascript",
				"patcherrelativepath" : "../../javascript",
				"type" : "TEXT",
				"implicit" : 1
			}
, 			{
				"name" : "pattrexists.mxe64",
				"type" : "mx64"
			}
, 			{
				"name" : "tetrishelp.js",
				"bootpath" : "~/Documents/Max 8/Packages/ppooll/javascript",
				"patcherrelativepath" : "../../javascript",
				"type" : "TEXT",
				"implicit" : 1
			}
 ],
		"autosave" : 0,
		"bgcolor" : [ 0.392156862745098, 0.196078431372549, 0.392156862745098, 1.0 ]
	}

}
